#!OML:ASF E:\acrobat2\Project_11_07_03\Capture day 1\Session 1\Acrobat.ASF
:FULLY-SPECIFIED
:DEGREES
145
root 8.08275 18.0727 -0.167121 2.74085 -62.1119 3.46014
lowerback -4.82457 1.9087 2.82204
upperback -1.07341 2.42851 -2.03009
thorax 1.8044 1.22514 -3.51975
lowerneck -0.875776 4.71316 2.71175
upperneck 5.6265 6.17963 0.374323
head 1.97958 3.13463 -0.211406
rclavicle -4.28008e-015 8.15017e-015
rhumerus -41.746 -15.9634 -71.5382
rradius 23.2032
rwrist 6.54409
rhand -5.16914 -35.2842
rfingers 7.12502
rthumb 20.6309 -64.2077
lclavicle -4.28008e-015 8.15017e-015
lhumerus -34.066 -4.22848 82.0046
lradius 23.9532
lwrist 9.23655
lhand -2.27029 -13.9902
lfingers 7.12502
lthumb 23.4141 14.6053
rfemur 6.37845 10.0298 15.1917
rtibia -0.347719
rfoot -17.1436 -24.0437
rtoes -22.433
lfemur -2.4122 0.98966 -9.46808
ltibia 6.12443
lfoot -12.3913 0.193318
ltoes 28.2585
146
root 8.07651 18.0758 -0.174393 3.20637 -61.8995 3.2826
lowerback -4.53049 1.75991 2.8654
upperback -1.01498 2.23515 -1.98384
thorax 1.68386 1.12812 -3.5172
lowerneck -0.586173 5.10974 3.29634
upperneck 4.89538 6.75687 -0.542422
head 1.75976 3.41175 -0.597996
rclavicle -2.4494e-014 -1.95803e-014
rhumerus -41.8897 -14.9933 -71.1303
rradius 23.2657
rwrist 5.08607
rhand -6.1556 -36.3635
rfingers 7.12502
rthumb 19.6828 -65.387
lclavicle -2.4494e-014 -1.95803e-014
lhumerus -33.9895 -4.37093 81.8788
lradius 24.1016
lwrist 8.92751
lhand -2.66425 -14.1838
lfingers 7.12502
lthumb 23.0362 14.4595
rfemur 5.73549 10.1489 15.2308
rtibia 0.482344
rfoot -20.0215 -22.5838
rtoes -11.1992
lfemur -3.43647 1.30235 -9.31117
ltibia 7.27437
lfoot -12.3467 -0.496034
ltoes 29.2945
147
root 8.07374 18.0766 -0.183598 3.78101 -61.6152 2.86987
lowerback -4.04923 1.59892 2.97991
upperback -0.902543 2.02719 -1.87006
thorax 1.51284 1.02432 -3.48837
lowerneck -1.2253 4.85341 2.45872
upperneck 4.56048 6.40124 -0.0875246
head 1.70674 3.22735 -0.314807
rclavicle -7.35317e-014 4.17448e-015
rhumerus -42.0198 -14.276 -70.6627
rradius 23.238
rwrist 3.70997
rhand -6.82733 -37.3076
rfingers 7.12502
rthumb 19.0369 -66.396
lclavicle -7.35317e-014 4.17448e-015
lhumerus -33.9866 -4.9953 81.9995
lradius 24.4467
lwrist 8.88749
lhand -3.07912 -14.536
lfingers 7.12502
lthumb 22.638 14.1564
rfemur 4.93843 9.63735 15.2569
rtibia 1.72718
rfoot -22.1342 -20.7251
rtoes -1.43897
lfemur -4.44163 1.57387 -9.02012
ltibia 8.52983
lfoot -12.2925 -1.10262
ltoes 29.4791
148
root 8.07233 18.0765 -0.192407 4.41804 -61.2211 2.30362
lowerback -3.41477 1.53205 3.24692
upperback -0.785238 1.94556 -1.7993
thorax 1.27789 0.983144 -3.58497
lowerneck -0.873882 5.12907 2.8863
upperneck 3.6513 6.80243 -0.820273
head 1.40703 3.41861 -0.62531
rclavicle 2.63762e-014 -4.07509e-015
rhumerus -42.5502 -14.3116 -69.8863
rradius 23.3904
rwrist 3.01676
rhand -7.32795 -38.3927
rfingers 7.12502
rthumb 18.5554 -67.5277
lclavicle 2.63762e-014 -4.07509e-015
lhumerus -33.9817 -5.76147 82.132
lradius 24.9662
lwrist 8.37914
lhand -3.19351 -14.7599
lfingers 7.12502
lthumb 22.5282 13.9458
rfemur 3.86699 7.73331 15.1597
rtibia 3.37939
rfoot -21.812 -19.533
rtoes -4.17793
lfemur -5.22627 1.43252 -8.72638
ltibia 9.48773
lfoot -12.351 -1.41246
ltoes 29.5309
149
root 8.07384 18.0724 -0.201004 4.63923 -60.6366 2.12882
lowerback -2.75451 1.381 3.34125
upperback -0.590914 1.76055 -1.71383
thorax 1.09192 0.891462 -3.57178
lowerneck -0.673082 5.43482 3.07152
upperneck 2.95305 7.23239 -1.40564
head 1.19335 3.62604 -0.844093
rclavicle -2.89232e-014 -2.28602e-015
rhumerus -42.165 -18.0153 -66.8956
rradius 20.6325
rwrist 7.18856
rhand -8.21117 -37.6411
rfingers 7.12502
rthumb 17.7056 -66.855
lclavicle -2.89232e-014 -2.28602e-015
lhumerus -33.9224 -6.06575 82.2466
lradius 25.4922
lwrist 7.28622
lhand -3.18096 -14.8263
lfingers 7.12502
lthumb 22.5403 13.878
rfemur 2.60746 5.2735 14.743
rtibia 5.57718
rfoot -21.6997 -17.7442
rtoes -5.99663
lfemur -6.046 1.19731 -8.68805
ltibia 10.5416
lfoot -12.3546 -1.79787
ltoes 29.5453
150
root 8.07906 18.0614 -0.214168 4.85144 -59.9273 1.95758
lowerback -2.12442 1.23448 3.41212
upperback -0.330017 1.58172 -1.59914
thorax 0.98997 0.805252 -3.51072
lowerneck -0.882529 5.30778 2.87418
upperneck 2.26218 7.06242 -1.53382
head 1.00522 3.53557 -0.858093
rclavicle -1.4182e-014 8.84592e-015
rhumerus -42.3805 -13.6258 -69.2834
rradius 21.8924
rwrist 2.3744
rhand -9.22776 -38.6826
rfingers 7.12502
rthumb 16.7272 -67.982
lclavicle -1.4182e-014 8.84592e-015
lhumerus -33.8334 -6.93836 82.6459
lradius 26.1041
lwrist 6.80751
lhand -3.35827 -14.9133
lfingers 7.12502
lthumb 22.3701 13.8115
rfemur 1.07548 2.87386 14.3961
rtibia 8.27128
rfoot -21.7331 -16.1605
rtoes -7.20705
lfemur -7.34566 1.63046 -8.51252
ltibia 12.353
lfoot -12.0304 -2.84538
ltoes 30.2854
151
root 8.0891 18.0393 -0.232983 5.10648 -59.1441 1.72665
lowerback -1.35325 1.26019 3.59944
upperback -0.149927 1.63695 -1.59766
thorax 0.752645 0.832308 -3.62795
lowerneck -1.22079 5.26115 2.85649
upperneck 2.13245 6.9897 -1.48128
head 1.01725 3.49814 -0.832719
rclavicle -6.92827e-014 6.36111e-015
rhumerus -42.95 -10.2868 -71.4506
rradius 22.9495
rwrist -1.47415
rhand -10.204 -39.5456
rfingers 7.12502
rthumb 15.7872 -68.9219
lclavicle -6.92827e-014 6.36111e-015
lhumerus -33.8426 -8.81153 83.1772
lradius 26.7079
lwrist 6.91007
lhand -3.76043 -15.3793
lfingers 7.12502
lthumb 21.984 13.3914
rfemur -0.651604 1.0157 14.3012
rtibia 11.3309
rfoot -22.11 -15.2537
rtoes -8.34548
lfemur -8.83149 2.28117 -8.24833
ltibia 14.4355
lfoot -11.5396 -4.17962
ltoes 31.4222
152
root 8.09686 18.006 -0.256142 4.94675 -58.3466 1.84907
lowerback -0.477508 1.35762 3.70831
upperback 0.0156339 1.79452 -1.70321
thorax 0.452632 0.908381 -3.81432
lowerneck -0.45925 5.32139 3.23257
upperneck 0.930403 7.09116 -2.16566
head 0.561249 3.54608 -1.1442
rclavicle -3.33958e-014 8.69683e-015
rhumerus -43.4117 -8.40487 -73.2644
rradius 23.6685
rwrist -3.58804
rhand -10.6774 -40.1032
rfingers 7.12502
rthumb 15.3312 -69.5149
lclavicle -3.33958e-014 8.69683e-015
lhumerus -34.0602 -10.9182 83.7014
lradius 27.2376
lwrist 6.89294
lhand -4.3514 -15.9879
lfingers 7.12502
lthumb 21.4165 12.8484
rfemur -2.33825 -0.638237 14.0958
rtibia 14.6046
rfoot -22.706 -14.5439
rtoes -8.83691
lfemur -9.94117 2.44808 -8.25511
ltibia 16.0723
lfoot -11.2808 -5.15649
ltoes 30.8893
153
root 8.09117 17.9682 -0.285536 4.80627 -57.5465 1.92446
lowerback 0.226636 1.48157 3.79855
upperback 0.265466 1.98163 -1.76384
thorax 0.33738 1.00433 -3.94116
lowerneck -0.178658 5.63012 3.53296
upperneck 0.711848 7.51185 -2.55494
head 0.487736 3.75685 -1.32255
rclavicle 7.97002e-015 -5.1684e-015
rhumerus -43.4325 -7.13968 -75.1593
rradius 24.5951
rwrist -5.24029
rhand -10.7114 -40.893
rfingers 7.12502
rthumb 15.2985 -70.3072
lclavicle 7.97002e-015 -5.1684e-015
lhumerus -34.2406 -13.0445 84.2461
lradius 27.3525
lwrist 6.76788
lhand -4.81579 -16.5313
lfingers 7.12502
lthumb 20.9704 12.3551
rfemur -3.92466 -2.1034 14.0019
rtibia 17.8062
rfoot -23.2306 -13.8894
rtoes -8.4767
lfemur -10.8989 2.4442 -8.19936
ltibia 17.5418
lfoot -11.1683 -6.02135
ltoes 29.6369
154
root 8.07933 17.9252 -0.314634 4.52188 -56.5818 2.16848
lowerback 0.882026 1.55375 3.74909
upperback 0.500453 2.09734 -1.74533
thorax 0.220141 1.0634 -3.90916
lowerneck -0.201882 5.08095 3.18525
upperneck -0.0493372 6.7717 -2.60008
head 0.222281 3.38456 -1.29826
rclavicle 5.13361e-014 1.26228e-014
rhumerus -43.0626 -5.49334 -77.3683
rradius 26.0237
rwrist -7.77665
rhand -11.4497 -42.0474
rfingers 7.12502
rthumb 14.5873 -71.5144
lclavicle 5.13361e-014 1.26228e-014
lhumerus -34.2968 -14.9636 84.6903
lradius 26.5824
lwrist 6.31834
lhand -4.77531 -17.1954
lfingers 7.12502
lthumb 21.0093 11.6867
rfemur -5.31618 -3.5187 13.79
rtibia 20.8248
rfoot -23.5109 -13.2533
rtoes -8.37842
lfemur -12.104 2.71477 -8.22182
ltibia 19.4066
lfoot -10.7625 -7.30727
ltoes 29.8048
155
root 8.0635 17.8772 -0.335745 3.68296 -55.6332 2.97552
lowerback 1.56495 1.61321 3.48333
upperback 0.695477 2.19247 -1.81972
thorax 0.0397339 1.10923 -3.85479
lowerneck -0.414926 5.02653 2.50296
upperneck 0.0739545 6.69693 -2.33304
head 0.259186 3.34613 -1.09352
rclavicle 4.78916e-014 -1.4884e-014
rhumerus -42.282 -3.73012 -79.6271
rradius 27.4739
rwrist -10.4828
rhand -12.6718 -41.5587
rfingers 7.12502
rthumb 13.4096 -71.1072
lclavicle 4.78916e-014 -1.4884e-014
lhumerus -34.4298 -16.447 84.8485
lradius 24.9132
lwrist 4.39641
lhand -4.71056 -17.7893
lfingers 7.12502
lthumb 21.0715 11.0858
rfemur -6.45789 -4.95572 13.0499
rtibia 23.6772
rfoot -23.3139 -12.5534
rtoes -9.74273
lfemur -13.2354 3.16556 -8.67156
ltibia 21.3599
lfoot -10.1133 -8.76206
ltoes 31.8486
156
root 8.03743 17.8337 -0.358121 3.39844 -54.8018 3.15671
lowerback 2.13082 1.69152 3.58017
upperback 0.830708 2.31351 -1.87933
thorax -0.120505 1.16863 -3.98901
lowerneck -0.565706 4.69265 2.10046
upperneck 0.157137 6.25044 -1.99877
head 0.273416 3.12249 -0.921968
rclavicle 1.74247e-014 9.93923e-017
rhumerus -41.3554 -0.0568556 -83.5709
rradius 31.2455
rwrist -16.8312
rhand -15.9209 -49.6891
rfingers 7.12502
rthumb 10.2765 -79.4181
lclavicle 1.74247e-014 9.93923e-017
lhumerus -34.8323 -17.5762 84.5373
lradius 22.5859
lwrist 1.05041
lhand -3.57769 -18.4237
lfingers 7.12502
lthumb 22.1594 10.3262
rfemur -7.57651 -6.0347 12.7363
rtibia 26.4057
rfoot -22.9377 -11.6879
rtoes -11.0756
lfemur -14.2382 3.61572 -8.69281
ltibia 23.0941
lfoot -9.22127 -9.97974
ltoes 35.8634
157
root 8.00702 17.7979 -0.382133 3.94242 -53.8735 2.3377
lowerback 2.60223 1.72729 4.27375
upperback 1.00021 2.39143 -1.7926
thorax -0.176994 1.21096 -4.30515
lowerneck -0.490704 4.87196 2.41579
upperneck 0.267284 6.49288 -2.46409
head 0.32787 3.24325 -1.11649
rclavicle -5.67965e-014 -5.66536e-015
rhumerus -39.6057 2.08987 -85.7484
rradius 35.449
rwrist -17.7761
rhand -13.4622 -52.0918
rfingers 7.12502
rthumb 12.6477 -81.6889
lclavicle -5.67965e-014 -5.66536e-015
lhumerus -35.2768 -18.5643 83.5391
lradius 19.7085
lwrist -2.72362
lhand -0.189765 -19.979
lfingers 7.12502
lthumb 25.4086 8.34778
rfemur -8.62146 -6.80572 13.1911
rtibia 28.9484
rfoot -22.3726 -10.7764
rtoes -12.0254
lfemur -15.2236 4.00381 -7.97466
ltibia 24.6908
lfoot -8.05069 -10.8096
ltoes 38.848
158
root 7.97211 17.7745 -0.405988 3.98314 -52.9665 2.14748
lowerback 2.94721 1.70402 4.43989
upperback 1.25072 2.37446 -1.68869
thorax -0.111299 1.2087 -4.29799
lowerneck -0.774674 4.96697 2.26766
upperneck 0.623073 6.62216 -2.63226
head 0.488997 3.30457 -1.1298
rclavicle -4.62547e-014 6.95746e-015
rhumerus -37.2186 6.58065 -88.7035
rradius 41.2821
rwrist -23.3613
rhand -11.3187 -50.2993
rfingers 7.12502
rthumb 14.7135 -79.7572
lclavicle -4.62547e-014 6.95746e-015
lhumerus -35.7569 -18.8777 81.6518
lradius 16.6583
lwrist -7.51934
lhand 1.32556 -22.3937
lfingers 7.12502
lthumb 26.8594 5.71836
rfemur -9.53337 -7.47742 13.2014
rtibia 31.1897
rfoot -21.4276 -9.95962
rtoes -12.9918
lfemur -16.1013 4.28418 -7.70622
ltibia 26.0902
lfoot -6.6474 -11.2913
ltoes 40.8588
159
root 7.9338 17.772 -0.429808 3.44333 -52.1748 2.70903
lowerback 3.26551 1.58893 3.95395
upperback 1.44301 2.21588 -1.58815
thorax -0.13195 1.12897 -3.92322
lowerneck -0.68596 5.35666 2.54034
upperneck 0.890267 7.15593 -3.50469
head 0.617899 3.5673 -1.44
rclavicle -4.96962e-016 3.37934e-015
rhumerus -33.511 11.2618 -90.0919
rradius 46.8588
rwrist -25.9625
rhand -6.66022 -11.7257
rfingers 7.12502
rthumb 19.1976 -40.7982
lclavicle -4.96962e-016 3.37934e-015
lhumerus -36.3603 -16.4678 77.8511
lradius 13.4263
lwrist -14.6145
lhand -1.96279 -25.3991
lfingers 7.12502
lthumb 23.7091 3.15853
rfemur -10.121 -8.10803 12.6261
rtibia 32.7841
rfoot -20.2678 -9.17977
rtoes -13.6079
lfemur -16.9122 4.3863 -7.99628
ltibia 27.3786
lfoot -4.78403 -11.2693
ltoes 44.0415
